<mxfile host="app.diagrams.net" modified="2021-08-24T14:28:08.157Z" agent="5.0 (X11)" etag="loYvL65-zMkA0b5mJtyP" version="14.9.5" type="github">
  <diagram id="fhpa1yW14Nf8clvQcn4W" name="Page-1">
    <mxGraphModel dx="868" dy="1595" grid="1" gridSize="10" guides="1" tooltips="1" connect="1" arrows="1" fold="1" page="1" pageScale="1" pageWidth="850" pageHeight="1100" math="0" shadow="0">
      <root>
        <mxCell id="0" />
        <mxCell id="1" parent="0" />
        <mxCell id="PiePy1-SovwP09iOrNaZ-1" value="&lt;p align=&quot;center&quot;&gt;&lt;br&gt;&lt;/p&gt;" style="whiteSpace=wrap;html=1;aspect=fixed;align=center;" parent="1" vertex="1">
          <mxGeometry x="160" y="-570" width="520" height="520" as="geometry" />
        </mxCell>
        <mxCell id="PiePy1-SovwP09iOrNaZ-2" value="NAME OF THE APP" style="text;html=1;align=center;verticalAlign=middle;resizable=0;points=[];autosize=1;strokeColor=none;" parent="1" vertex="1">
          <mxGeometry x="360" y="-570" width="120" height="20" as="geometry" />
        </mxCell>
        <mxCell id="PiePy1-SovwP09iOrNaZ-3" value="PATIENT" style="shape=umlActor;verticalLabelPosition=bottom;verticalAlign=top;html=1;" parent="1" vertex="1">
          <mxGeometry x="50" y="-510" width="70" height="120" as="geometry" />
        </mxCell>
        <mxCell id="PiePy1-SovwP09iOrNaZ-5" value="DOCTOR" style="shape=umlActor;verticalLabelPosition=bottom;verticalAlign=top;html=1;" parent="1" vertex="1">
          <mxGeometry x="70" y="-260" width="60" height="110" as="geometry" />
        </mxCell>
        <mxCell id="PiePy1-SovwP09iOrNaZ-6" value="ADMINS" style="shape=umlActor;verticalLabelPosition=bottom;verticalAlign=top;html=1;direction=east;" parent="1" vertex="1">
          <mxGeometry x="730" y="-360" width="60" height="130" as="geometry" />
        </mxCell>
        <mxCell id="AIOXDdsMLLMwucUnHABV-1" value="Log In" style="ellipse;whiteSpace=wrap;html=1;" vertex="1" parent="1">
          <mxGeometry x="350" y="-490" width="120" height="80" as="geometry" />
        </mxCell>
        <mxCell id="AIOXDdsMLLMwucUnHABV-2" value="Register" style="ellipse;whiteSpace=wrap;html=1;" vertex="1" parent="1">
          <mxGeometry x="350" y="-380" width="120" height="80" as="geometry" />
        </mxCell>
        <mxCell id="AIOXDdsMLLMwucUnHABV-3" value="make appointment" style="ellipse;whiteSpace=wrap;html=1;" vertex="1" parent="1">
          <mxGeometry x="350" y="-270" width="120" height="80" as="geometry" />
        </mxCell>
        <mxCell id="AIOXDdsMLLMwucUnHABV-4" value="check info" style="ellipse;whiteSpace=wrap;html=1;" vertex="1" parent="1">
          <mxGeometry x="350" y="-150" width="120" height="80" as="geometry" />
        </mxCell>
      </root>
    </mxGraphModel>
  </diagram>
</mxfile>
